<?xml version="1.0" encoding="UTF-8" standalone="no"?>
<!-- Uploaded to: SVG Repo, www.svgrepo.com, Generator: SVG Repo Mixer Tools -->

<svg
   width="49.996578"
   height="49.999969"
   viewBox="0 0 1.4998973 1.4999991"
   fill="none"
   version="1.1"
   id="svg1"
   sodipodi:docname="linkedin.svg"
   inkscape:version="1.3.2 (091e20e, 2023-11-25)"
   xmlns:inkscape="http://www.inkscape.org/namespaces/inkscape"
   xmlns:sodipodi="http://sodipodi.sourceforge.net/DTD/sodipodi-0.dtd"
   xmlns="http://www.w3.org/2000/svg"
   xmlns:svg="http://www.w3.org/2000/svg">
  <defs
     id="defs1" />
  <sodipodi:namedview
     id="namedview1"
     pagecolor="#ffffff"
     bordercolor="#000000"
     borderopacity="0.25"
     inkscape:showpageshadow="2"
     inkscape:pageopacity="0.0"
     inkscape:pagecheckerboard="true"
     inkscape:deskcolor="#d1d1d1"
     showgrid="false"
     inkscape:zoom="0.295"
     inkscape:cx="267.79661"
     inkscape:cy="267.79661"
     inkscape:window-width="1280"
     inkscape:window-height="449"
     inkscape:window-x="0"
     inkscape:window-y="25"
     inkscape:window-maximized="0"
     inkscape:current-layer="svg1" />
  <path
     d="m 1.3798737,1.3442562e-4 h -1.251448 c -0.01613,-7.556e-4 -0.032252,0.001680004 -0.047441,0.007160004 -0.015189,0.00548 -0.029147,0.013908 -0.041077,0.024791 -0.011929,0.010884 -0.021594,0.024015 -0.028442,0.038638 C 0.0046186,0.08534813 7.218e-4,0.10117923 0,0.11731113 V 1.3715741 c 9.449e-4,0.033756 0.014779,0.065881 0.038662,0.089757 0.023883,0.023885 0.056002,0.037722 0.089764,0.038668 h 1.251448 c 0.032819,-0.00146 0.063763,-0.01573 0.086195,-0.039737 0.022432,-0.024007 0.034562,-0.055842 0.033794,-0.088689 V 0.11731013 c 2.718e-4,-0.015702 -0.00267,-0.031292 -0.00864,-0.045816 -0.00597,-0.014523 -0.014849,-0.027674 -0.026088,-0.038647 -0.01123,-0.010971 -0.024588,-0.019532 -0.03925,-0.025157 -0.014661,-0.00563 -0.030316,-0.008200004 -0.046008,-0.007560004 z M 0.4687071,1.2506477 H 0.2502896 V 0.58227143 H 0.4687071 Z M 0.3646541,0.48102783 c -0.015241,5.315e-4 -0.030429,-0.0021 -0.044606,-0.00771 -0.014178,-0.00562 -0.027042,-0.014109 -0.037781,-0.024937 -0.01074,-0.010828 -0.019125,-0.02376 -0.024628,-0.037983 -0.0055,-0.014223 -0.00801,-0.029431 -0.00735,-0.044668 -6.74e-4,-0.015402 0.00188,-0.030773 0.00749,-0.04513 0.00562,-0.014358 0.014171,-0.027382 0.025115,-0.038238 0.010945,-0.010857 0.024038,-0.019306 0.03844,-0.024805 0.014402,-0.0055 0.029795,-0.00793 0.04519,-0.00713 0.015242,-5.306e-4 0.030429,0.0021 0.044606,0.00771 0.014178,0.00562 0.027041,0.014109 0.037781,0.024937 0.01074,0.010828 0.019125,0.02376 0.024628,0.037983 0.0055,0.014223 0.00801,0.029431 0.00735,0.044668 6.74e-4,0.015402 -0.00188,0.030773 -0.00749,0.04513 -0.00562,0.014358 -0.014171,0.027382 -0.025115,0.038238 -0.010945,0.010857 -0.024038,0.019306 -0.03844,0.024805 -0.014402,0.0055 -0.029795,0.00793 -0.04519,0.00713 z M 1.2505105,1.2506477 H 1.0311556 V 0.88505623 c 0,-0.08718 -0.030935,-0.1471741 -0.1087401,-0.1471741 -0.024166,2.063e-4 -0.047686,0.00788 -0.067316,0.021982 -0.019639,0.014099 -0.034431,0.033925 -0.042362,0.05676 -0.00609,0.017117 -0.00864,0.035294 -0.0075,0.053433 V 1.2506477 H 0.5896335 V 0.58227143 h 0.2156053 v 0.093741 c 0.01917,-0.035219 0.047696,-0.064447 0.082436,-0.08447 0.03474,-0.020014 0.074337,-0.030037 0.1144207,-0.02896 0.1415496,0 0.2484148,0.093744 0.2484148,0.2934134 z"
     fill="#000000"
     id="path1"
     style="stroke-width:0.0937414" />
</svg>
