<svg version="1.2" xmlns="http://www.w3.org/2000/svg" viewBox="0 0 1547 1546" width="1547" height="1546">
	<title>HLNE-svg</title>
	<style>
		.s0 { fill: #147dab } 
	</style>
	<path id="path1" fill-rule="evenodd" class="s0" d="m1158.7 1018.2h388v527.3h-923.2c-344 0-622.8-278.7-622.8-622.6v-922.9h1546v861.2h-348.1v-465.4h-157.1v505.3c0 64.6 52.6 117.1 117.2 117.1zm-213-622.5h-157.1v234.5c0 0-128.6-0.7-140.1 0-43.6 2.6-84.1 19-120.4 39.9-4.5 2.6-9 5.4-13.4 8.2-75.5 49.6-128.6 130.3-140.9 224 0 0-1.6 30.8-1.6 40.8v75.1h155.6v-231.6h0.3 260.2v231.6h157.4v-388zm-573.5 318.9c94-55.3 157.2-157.4 157.2-274.3v-44.6h-157.2z"/>
</svg>