<?xml version="1.0" encoding="UTF-8" standalone="no"?>
<!-- Uploaded to: SVG Repo, www.svgrepo.com, Generator: SVG Repo Mixer Tools -->

<svg
   width="16.000002"
   height="11.633191"
   viewBox="0 0 0.48000005 0.34899573"
   fill="none"
   version="1.1"
   id="svg1"
   sodipodi:docname="link.svg"
   inkscape:version="1.3.2 (091e20e, 2023-11-25)"
   xmlns:inkscape="http://www.inkscape.org/namespaces/inkscape"
   xmlns:sodipodi="http://sodipodi.sourceforge.net/DTD/sodipodi-0.dtd"
   xmlns="http://www.w3.org/2000/svg"
   xmlns:svg="http://www.w3.org/2000/svg">
  <defs
     id="defs1" />
  <sodipodi:namedview
     id="namedview1"
     pagecolor="#ffffff"
     bordercolor="#000000"
     borderopacity="0.25"
     inkscape:showpageshadow="2"
     inkscape:pageopacity="0.0"
     inkscape:pagecheckerboard="true"
     inkscape:deskcolor="#d1d1d1"
     inkscape:zoom="11.001657"
     inkscape:cx="22.451163"
     inkscape:cy="18.633557"
     inkscape:window-width="1280"
     inkscape:window-height="747"
     inkscape:window-x="0"
     inkscape:window-y="25"
     inkscape:window-maximized="0"
     inkscape:current-layer="svg1"
     showgrid="false" />
  <path
     d="m 0.17435006,0.30535511 c -0.005552,0.005183 -0.009849,0.008652 -0.0142407,0.011188 -0.021496,0.0124107 -0.0479799,0.0124107 -0.06947569,0 -0.0079214,-0.004574 -0.01553565,-0.0121884 -0.03076454,-0.0274151 -0.01522883,-0.0152291 -0.02284338,-0.0228436 -0.0274165,-0.0307662 -0.01241067,-0.0214958 -0.01241067,-0.0479799 0,-0.0694757 0.0045731,-0.00792 0.01218765,-0.0155347 0.0274165,-0.0307638 L 0.12537155,0.09262007 c 0.0152288,-0.01522884 0.0228432,-0.02284339 0.0307643,-0.02741652 0.021496,-0.01241068 0.0479804,-0.01241068 0.0694762,-2.3e-7 0.00792,0.0045731 0.0155347,0.01218789 0.0307638,0.02741673 0.015229,0.01522884 0.0228436,0.02284312 0.0274174,0.03076427 0.0124107,0.0214958 0.0124107,0.0479799 0,0.0694757 -0.002536,0.004391 -0.006005,0.008689 -0.0111902,0.0142402 m -0.0652052,-0.0652052 c -0.005185,0.005551 -0.008654,0.009849 -0.0111902,0.0142402 -0.0124098,0.0214958 -0.0124098,0.0479799 0,0.0694757 0.004574,0.007923 0.0121884,0.0155371 0.0274174,0.0307638 0.015229,0.015229 0.0228436,0.0228436 0.0307638,0.0274174 0.0214958,0.0124107 0.0479799,0.0124107 0.0694757,0 0.007923,-0.004574 0.0155371,-0.0121884 0.0307662,-0.0274174 l 0.0655017,-0.0655017 c 0.0152289,-0.015229 0.0228437,-0.0228436 0.0274149,-0.0307638 0.0124107,-0.0214958 0.0124107,-0.0479801 0,-0.06947593 -0.004572,-0.0079212 -0.0121861,-0.01553564 -0.0274149,-0.03076453 -0.0152293,-0.01522884 -0.0228437,-0.02284313 -0.0307637,-0.02741651 -0.0214981,-0.01241066 -0.0479799,-0.01241066 -0.0694757,0 -0.004393,0.0025354 -0.008689,0.0060053 -0.0142425,0.01118907"
     stroke="#000000"
     stroke-width="0.0463171"
     stroke-linecap="round"
     id="path1" />
</svg>
