<?xml version="1.0" encoding="UTF-8" standalone="no"?>
<svg
   version="1.2"
   viewBox="0 0 90.029114 90"
   width="90.029114"
   height="90"
   id="svg1"
   sodipodi:docname="HL.svg"
   inkscape:version="1.3.2 (091e20e, 2023-11-25)"
   xmlns:inkscape="http://www.inkscape.org/namespaces/inkscape"
   xmlns:sodipodi="http://sodipodi.sourceforge.net/DTD/sodipodi-0.dtd"
   xmlns="http://www.w3.org/2000/svg"
   xmlns:svg="http://www.w3.org/2000/svg"
   xmlns:rdf="http://www.w3.org/1999/02/22-rdf-syntax-ns#"
   xmlns:cc="http://creativecommons.org/ns#"
   xmlns:dc="http://purl.org/dc/elements/1.1/">
  <defs
     id="defs1" />
  <sodipodi:namedview
     id="namedview1"
     pagecolor="#ffffff"
     bordercolor="#000000"
     borderopacity="0.25"
     inkscape:showpageshadow="2"
     inkscape:pageopacity="0.0"
     inkscape:pagecheckerboard="true"
     inkscape:deskcolor="#d1d1d1"
     inkscape:zoom="0.15265201"
     inkscape:cx="773"
     inkscape:cy="773"
     inkscape:window-width="1280"
     inkscape:window-height="449"
     inkscape:window-x="0"
     inkscape:window-y="25"
     inkscape:window-maximized="0"
     inkscape:current-layer="svg1" />
  <title
     id="title1">HLNE-svg</title>
  <style
     id="style1">
		.s0 { fill: #147dab } 
	</style>
  <path
     id="path1"
     fill-rule="evenodd"
     class="s0"
     d="m 67.434487,59.293433 h 22.59463 V 90 H 36.267874 C 16.235522,90 0,73.770301 0,53.743772 V 0 H 90.029117 V 50.15076 H 69.758007 V 23.048852 H 60.609511 V 52.47428 c 0,3.76189 3.063087,6.819153 6.824976,6.819153 z M 55.030734,23.043028 h -9.148495 v 13.655775 c 0,0 -7.488839,-0.04076 -8.158525,0 -2.538984,0.151407 -4.897444,1.106438 -7.011323,2.32352 -0.262051,0.151407 -0.524102,0.314461 -0.78033,0.477515 -4.396636,2.888386 -7.488839,7.587836 -8.205112,13.044322 0,0 -0.09317,1.793595 -0.09317,2.375931 v 4.373342 h 9.061146 V 45.806535 h 0.01747 15.152378 v 13.486898 h 9.165965 V 36.698803 Z M 21.633775,41.613717 c 5.473957,-3.220317 9.154319,-9.165965 9.154319,-15.973471 v -2.597218 h -9.154319 z"
     style="stroke-width:0.0582336" />
  <metadata
     id="metadata1">
    <rdf:RDF>
      <cc:Work
         rdf:about="">
        <dc:title>HLNE-svg</dc:title>
      </cc:Work>
    </rdf:RDF>
  </metadata>
</svg>
